<?xml version="1.0" standalone="no"?>
<!DOCTYPE svg PUBLIC "-//W3C//DTD SVG 20010904//EN"
 "http://www.w3.org/TR/2001/REC-SVG-20010904/DTD/svg10.dtd">
<svg version="1.0" xmlns="http://www.w3.org/2000/svg"
 width="354.000000pt" height="354.000000pt" viewBox="0 0 354.000000 354.000000"
 preserveAspectRatio="xMidYMid meet">
<metadata>
Created by potrace 1.11, written by Peter Selinger 2001-2013
</metadata>
<g transform="translate(0.000000,354.000000) scale(0.100000,-0.100000)"
fill="#000000" stroke="none">
<path d="M2400 3520 c0 -5 -3 -9 -7 -8 -5 1 -34 -6 -65 -16 -31 -9 -70 -19
-85 -22 -15 -3 -51 -13 -79 -24 -29 -10 -55 -16 -58 -13 -3 4 -6 0 -6 -7 0 -7
-3 -10 -7 -7 -3 4 -12 2 -20 -4 -7 -6 -13 -9 -13 -6 0 4 -20 -2 -45 -13 -25
-11 -47 -20 -50 -20 -3 0 -26 -10 -52 -22 -27 -11 -54 -21 -60 -21 -7 0 -13
-4 -13 -9 0 -4 -3 -7 -7 -6 -16 5 -105 -47 -141 -82 -63 -61 -92 -102 -134
-189 -22 -47 -41 -89 -43 -95 -2 -10 -6 -22 -22 -63 -3 -10 -7 -20 -8 -23 -6
-26 -29 -89 -37 -107 -10 -21 -12 -20 -64 22 -30 24 -64 49 -76 56 -19 10 -18
6 8 -22 48 -52 99 -179 73 -179 -6 0 -8 -4 -5 -8 3 -5 -6 -20 -20 -35 -13 -14
-24 -29 -24 -33 0 -4 -11 -17 -25 -30 -14 -13 -25 -26 -25 -30 0 -4 -16 -22
-35 -40 -18 -19 -32 -34 -29 -34 3 0 -90 -94 -205 -209 -116 -114 -211 -213
-211 -220 0 -7 -11 -24 -25 -39 -14 -15 -25 -32 -25 -39 0 -6 -3 -13 -7 -15
-11 -4 -43 -67 -43 -82 0 -7 -6 -18 -12 -25 -7 -6 -13 -15 -14 -19 0 -4 -8
-32 -18 -62 -10 -30 -19 -77 -21 -104 -2 -26 -6 -51 -9 -54 -3 -3 -1 -11 5
-19 7 -8 8 -13 1 -13 -5 0 -8 -16 -6 -37 3 -29 -7 -57 -42 -125 -24 -49 -42
-88 -40 -88 3 0 -2 -16 -10 -35 -8 -19 -11 -35 -8 -35 4 0 2 -6 -4 -12 -10
-13 -30 -80 -38 -128 -3 -14 -7 -32 -10 -40 -6 -15 -16 -86 -18 -127 -1 -13
-4 -23 -7 -23 -11 0 -7 -224 4 -282 16 -84 23 -75 22 27 0 52 -4 95 -8 95 -5
0 -5 6 0 13 4 6 8 21 9 32 1 11 4 34 8 50 3 17 9 46 12 65 3 19 9 42 13 50 4
8 7 22 6 30 -1 8 3 20 8 27 5 7 6 17 2 23 -3 5 -2 10 3 10 6 0 13 11 16 25 9
36 21 31 20 -9 -1 -35 33 -177 54 -229 10 -23 9 -31 -4 -44 -29 -30 -44 -59
-39 -81 2 -12 0 -22 -6 -22 -5 0 -9 -6 -9 -12 0 -7 -13 -29 -30 -48 -16 -19
-27 -36 -25 -38 2 -2 -4 -12 -13 -23 -9 -11 -17 -23 -18 -27 -3 -31 -18 -82
-23 -82 -4 0 -8 -13 -9 -28 -3 -35 41 -86 81 -96 15 -4 25 -11 22 -16 -3 -5
-1 -11 4 -14 4 -3 11 -18 14 -33 9 -47 97 -122 97 -83 0 6 10 9 23 6 12 -2 40
-7 62 -12 22 -4 46 -13 53 -21 7 -7 23 -13 34 -13 12 0 22 -8 25 -21 4 -14 12
-19 24 -16 11 3 19 1 19 -4 0 -5 6 -9 13 -9 8 0 22 -9 32 -20 10 -12 25 -18
33 -15 8 3 21 0 28 -6 9 -7 14 -8 14 -1 0 6 11 9 24 8 17 -2 38 9 68 35 23 22
50 42 60 45 10 3 18 9 18 13 0 4 7 8 15 8 8 0 15 -4 15 -9 0 -4 24 1 53 13 28
11 59 22 67 24 8 2 29 9 45 16 17 7 32 13 35 13 3 1 11 5 17 9 25 16 127 25
291 27 34 1 62 5 62 11 0 5 25 9 55 9 42 0 56 -4 64 -18 9 -16 21 -18 88 -17
43 2 91 8 106 14 15 6 31 10 35 10 20 -3 32 2 27 11 -4 7 3 9 19 6 14 -3 28 0
32 5 3 6 25 9 48 8 23 -2 48 1 55 6 8 4 37 10 65 11 124 8 142 11 164 22 12 7
22 9 22 4 0 -6 20 -5 48 0 26 6 88 10 137 10 50 0 95 3 100 8 6 4 29 7 53 5
23 -1 45 2 48 7 3 5 20 9 38 8 60 -4 76 0 76 16 0 8 5 12 11 9 7 -5 9 8 7 37
-2 30 -8 43 -18 44 -8 0 -26 4 -40 9 -14 4 -34 10 -45 11 -100 16 -135 28
-135 49 0 8 1 16 1 18 1 1 -6 19 -15 40 -16 38 -66 106 -66 90 0 -4 -5 -1 -10
7 -5 8 -13 15 -17 16 -4 0 -31 12 -60 26 -47 23 -117 44 -135 40 -5 -1 -8 2
-8 6 0 5 -10 8 -22 7 -13 -1 -27 0 -33 4 -5 3 -21 7 -35 8 -14 1 -41 4 -60 7
-19 2 -39 5 -44 5 -5 1 4 11 20 23 16 12 31 25 34 29 3 3 27 18 53 33 26 14
58 35 70 47 36 34 120 96 156 116 38 21 49 54 25 77 -8 9 -12 16 -8 16 4 0 -2
8 -14 18 -19 17 -20 21 -6 40 19 28 15 41 -27 83 l-37 36 23 29 c13 16 21 32
18 36 -2 5 0 8 5 8 5 0 9 6 10 13 3 25 10 62 12 65 4 4 8 22 9 48 1 22 3 24
16 14 8 -6 14 -15 13 -18 -1 -4 3 -16 9 -27 12 -23 63 -168 69 -199 20 -96 22
-137 10 -201 -10 -51 -11 -54 -24 -88 -7 -16 -12 -34 -12 -42 0 -8 -5 -17 -10
-20 -6 -4 -8 -10 -5 -15 3 -5 -2 -16 -11 -24 -8 -9 -12 -16 -7 -16 4 0 1 -5
-7 -11 -13 -9 -13 -10 0 -7 8 3 28 28 43 56 16 29 32 52 36 52 8 0 9 -50 0
-65 -3 -5 -4 -20 -3 -33 0 -12 -3 -22 -8 -22 -6 0 -8 -6 -5 -14 3 -7 0 -19 -6
-25 -8 -8 -8 -11 1 -11 7 0 12 5 12 10 0 15 3 24 12 35 5 6 15 19 23 30 12 18
13 16 10 -22 -2 -23 -6 -51 -10 -62 -3 -10 -8 -29 -10 -41 -2 -11 -11 -34 -19
-51 -8 -16 -13 -29 -10 -29 8 0 54 80 54 95 0 8 5 15 12 15 6 0 8 3 5 7 -4 3
-3 11 2 17 12 14 39 97 46 138 6 33 29 85 66 144 10 17 16 34 12 37 -3 4 -2 7
4 7 11 0 40 64 51 110 12 52 3 159 -17 211 -5 15 -7 30 -4 33 4 3 1 6 -5 6 -7
0 -11 3 -10 8 3 16 -15 62 -25 62 -6 0 -8 3 -4 6 6 6 -43 105 -78 159 -25 38
-141 181 -180 221 -115 118 -215 260 -200 284 3 5 2 11 -3 14 -7 4 -9 92 -3
141 2 16 20 -9 24 -32 4 -25 17 -43 17 -24 0 7 5 9 10 6 20 -13 47 6 68 48 24
48 62 164 66 199 1 13 5 29 9 35 4 6 3 15 -3 18 -7 4 -7 11 -2 18 5 7 8 33 7
58 -1 35 2 46 12 42 8 -3 11 -13 8 -24 -4 -11 -3 -19 2 -19 4 0 9 -17 10 -38
1 -20 3 -61 5 -90 2 -28 1 -52 -2 -52 -3 0 -5 -15 -6 -33 -1 -44 -18 -131 -35
-173 -6 -18 -6 -31 0 -37 7 -7 14 -1 21 19 6 16 15 40 20 54 25 66 39 247 25
330 -18 113 -18 110 7 111 12 0 17 3 10 6 -9 3 1 12 25 24 21 10 63 36 93 58
30 22 57 38 59 35 2 -2 10 1 17 6 6 6 16 10 20 9 22 -4 34 2 34 16 0 8 9 15
21 15 12 0 17 4 14 11 -4 6 -13 8 -20 5 -7 -2 -17 0 -21 4 -5 5 -21 11 -34 14
-14 2 -26 5 -27 7 -2 1 -7 3 -13 4 -5 1 -12 4 -15 5 -3 1 -8 3 -12 5 -5 1 -21
7 -38 14 -16 7 -55 22 -85 32 -74 26 -190 82 -190 91 0 4 -6 8 -13 8 -7 0 -22
8 -33 18 -54 50 -167 117 -214 127 -8 2 -16 4 -17 5 -4 4 -21 7 -38 9 -11 1
-10 8 7 39 31 52 63 82 89 82 6 0 8 9 4 20 -4 14 -2 20 9 20 21 0 31 21 15 31
-19 12 -39 11 -39 -1z m-1080 -1056 c0 -14 -143 -224 -153 -224 -6 0 -8 -3 -4
-6 3 -3 -5 -18 -18 -32 -13 -15 -37 -43 -55 -62 -17 -19 -38 -47 -47 -62 -10
-16 -20 -28 -23 -28 -3 0 -28 -32 -55 -71 -28 -40 -58 -80 -67 -90 -10 -11
-18 -22 -18 -26 0 -5 -6 -15 -13 -23 -7 -9 -16 -22 -20 -30 -3 -8 -22 -42 -42
-75 -19 -33 -46 -82 -60 -108 -29 -55 -47 -55 -35 0 5 20 7 40 4 44 -2 4 0 10
6 14 5 3 10 17 10 30 0 13 9 45 20 72 44 102 74 163 81 163 4 0 10 11 13 25 4
14 11 25 16 25 6 0 10 5 10 11 0 12 45 72 93 122 18 19 41 45 53 58 11 13 58
58 104 99 46 41 106 98 134 127 47 48 66 62 66 47z m1398 -576 c67 -68 135
-141 153 -163 43 -54 101 -144 103 -161 1 -7 5 -17 9 -20 4 -4 7 -19 7 -34 0
-15 3 -30 7 -34 16 -16 17 -225 1 -252 -3 -5 -9 -24 -13 -43 -4 -19 -14 -50
-23 -70 -9 -20 -16 -39 -16 -43 -1 -5 -5 -8 -10 -8 -6 0 -10 18 -10 39 0 22
-4 38 -8 35 -4 -3 -8 4 -8 16 0 12 -5 30 -10 41 -6 10 -12 42 -14 71 -3 29 -5
53 -6 53 -2 0 -7 33 -13 96 -2 25 -7 51 -11 58 -4 6 -10 24 -12 39 -3 15 -16
50 -29 79 -13 28 -21 54 -17 57 3 3 1 6 -5 6 -6 0 -14 10 -17 23 -3 12 -33 58
-66 102 -32 44 -65 91 -72 105 -7 14 -15 27 -18 30 -20 19 -45 100 -31 100 4
0 63 -55 129 -122z m-1671 -265 c-34 -101 -44 -151 -43 -213 1 -33 -3 -60 -7
-60 -5 0 -5 -4 -2 -10 3 -5 -3 -27 -14 -48 -13 -25 -18 -53 -16 -80 2 -23 -1
-44 -5 -47 -5 -3 -14 -22 -21 -42 -6 -20 -21 -52 -33 -72 -11 -19 -21 -41 -22
-48 -1 -7 -22 -34 -47 -58 -41 -42 -45 -44 -50 -25 -3 12 -4 46 -1 76 4 52 6
69 20 132 4 15 7 33 7 40 0 6 4 12 8 12 4 0 6 9 4 20 -2 11 0 20 6 20 5 0 9 7
9 15 0 20 62 158 75 167 5 4 6 8 1 8 -5 0 -3 7 4 15 7 8 9 15 4 15 -5 0 -4 4
1 8 6 4 19 27 30 52 10 25 26 56 35 70 9 14 27 46 40 72 32 62 42 52 17 -19z
m-372 -586 c1 -52 9 -121 19 -159 10 -37 15 -72 12 -77 -7 -11 -46 -22 -47
-13 0 4 -3 21 -5 37 -8 47 -10 235 -3 235 4 0 7 6 6 13 -1 37 4 69 10 63 4 -4
8 -48 8 -99z"/>
<path d="M2719 833 c-13 -16 -12 -17 4 -4 9 7 17 15 17 17 0 8 -8 3 -21 -13z"/>
</g>
</svg>
